PathFileType	4	(X/Y/Z)	52_1_8_p0_0-628.trc
DataRate	CameraRate	NumFrames	NumMarkers	Units	OrigDataRate	OrigDataStartFrame	OrigNumFrames
60.0	60.0	7	27	m	60.0	0	629
Frame#	Time	RHip			RKnee			RAnkle			RBigToe			RSmallToe			RHeel			LHip			LKnee			LAnkle			LBigToe			LSmallToe			LHeel			Neck			Head			Nose			RShoulder			RElbow			RWrist			RThumb			RIndex			RPinky			LShoulder			LElbow			LWrist			LThumb			LIndex			LPinky			
		X1	Y1	Z1	X2	Y2	Z2	X3	Y3	Z3	X4	Y4	Z4	X5	Y5	Z5	X6	Y6	Z6	X7	Y7	Z7	X8	Y8	Z8	X9	Y9	Z9	X10	Y10	Z10	X11	Y11	Z11	X12	Y12	Z12	X13	Y13	Z13	X14	Y14	Z14	X15	Y15	Z15	X16	Y16	Z16	X17	Y17	Z17	X18	Y18	Z18	X19	Y19	Z19	X20	Y20	Z20	X21	Y21	Z21	X22	Y22	Z22	X23	Y23	Z23	X24	Y24	Z24	X25	Y25	Z25	X26	Y26	Z26	X27	Y27	Z27	
0	0.0	0.236024489045026	0.5727332113641064	0.48608906580011424	0.1340492804859087	0.6860054504919519	0.907147372530804	0.032149701007548576	0.8120587048403977	1.272824214342954	0.005311185814747335	0.6035909340591602	1.309050967430933	0.06780506090047284	0.6230808959428693	1.3258581317359022	-0.0020862826087145736	0.8900665360327328	1.313402158571413	0.050545080386543526	0.5448807464739208	0.4593112097461198	-0.07266587424290102	0.6723803746846666	0.8451708103251844	-0.1547786915944338	0.7750637487135238	1.21027798886648	-0.1380084369363756	0.5669079963458755	1.2558250799397235	-0.20091338650714954	0.6361700672551107	1.2578878361322143	-0.14836563246902737	0.8324868139484708	1.273832796755722	0.2537297814460558	0.4297819820328657	0.02275990761213987	0.30338514458151616	0.36454581537115904	-0.17303578879344783	0.28689412594585556	0.33267436730319755	-0.05634171861892468	0.386555378912283	0.4968069901033976	0.12056688891007586	0.3410600494409691	0.5153291113287672	0.36494039214866325	0.17498953411551949	0.4249364766621828	0.5067511432335732	0.10493334530773124	0.41509491993000913	0.5904677907651513	0.09587975059825775	0.41543028621893363	0.5966260769666097	0.09447567104039925	0.396210971196194	0.5857123543309102	0.09856588442545551	0.48337984390726674	0.054447419363230026	0.02867375650525976	0.4781128749053377	0.25668331599128197	0.08515306479328272	0.433728181935874	0.491183513353305	0.14492917994639443	0.38833967311721485	0.5745929813929866	0.13632320963486308	0.41804066083472613	0.6030531081985974	0.08849614329481963	0.41247125071615465	0.5942805095916183
1	0.016666666666666666	0.23468294047769592	0.572919853344576	0.4898113588396978	0.13771372355252334	0.6875806427161352	0.9082564161970952	0.029862442431506493	0.7958762272686677	1.2668159948577145	0.004816367070302237	0.6036179429176529	1.309526338755489	0.06682356275082328	0.6241554485627074	1.3267304113188942	-0.0017913961760590712	0.8861711678795037	1.3080035753381625	0.05051954558568857	0.5444892034776675	0.459642746178633	-0.07274891806638051	0.6724200394153642	0.8454542699611002	-0.1526988715080256	0.7744805307720956	1.2058326503429708	-0.1431724325410255	0.5977816173817996	1.2661022309841665	-0.2009654202281778	0.6373840836060881	1.2583244358724441	-0.1448512574408587	0.8291089072080142	1.259177632365279	0.25375403970613347	0.4297733277301815	0.022642608660609367	0.30337158367769534	0.3649630540873887	-0.17282308688525347	0.2838485498962646	0.3444271362688988	-0.060916211215150624	0.38653861172905796	0.4970596298034729	0.12050269098941413	0.3409983197559431	0.5155143603868229	0.3647471108824793	0.18187931338045749	0.43930934391517007	0.5093309011675242	0.10790097146798286	0.418895358615782	0.5987791376833314	0.10200696721479843	0.4293641687869122	0.6001531870475174	0.0970973297015612	0.4082989901971957	0.5888352169534931	0.09866669475328078	0.4832802305261467	0.05463589629466771	0.027680072423232265	0.47825201791128963	0.25976055188174174	0.08117075463554319	0.433676803307255	0.49060011814132093	0.14068467791271605	0.4030238579221315	0.5759819180354969	0.13610867919336528	0.4218948461907531	0.6072840312267722	0.08831160067493346	0.41267581514814633	0.5945100453463065
2	0.03333333333333333	0.23478748252809506	0.5727499447661144	0.4896505937971219	0.1376611989836321	0.6876071665443004	0.9083715746644434	0.02981920202737579	0.7956914890159963	1.2667283833208063	0.005051207052786189	0.6041041424817482	1.3093973518051942	0.06712350629927089	0.6245969891617853	1.3267291922988813	-0.0043273511611271204	0.8702831701000282	1.3019402369752646	0.04941284112773662	0.5448074739518446	0.46243655278174045	-0.07283016352734681	0.6725600449938473	0.8457534563928908	-0.1527334658356984	0.7746545508551731	1.2060319329788896	-0.14398831743815735	0.5822105985797053	1.2601572780259742	-0.2008041084880649	0.6373291394444862	1.2582399661381682	-0.14754041313126948	0.8333773764002879	1.2693044018512234	0.2537089930814465	0.42978233519374687	0.022557851071230386	0.30319990964700244	0.36526143254519866	-0.1728545899486165	0.2838142163034376	0.34446897946295185	-0.06097954564826214	0.3864757410224813	0.49712576806431014	0.1204689540798404	0.34090324704532154	0.515415528718334	0.36462880428351707	0.1795594523123879	0.4264017673888389	0.5075989206321494	0.10981454404797271	0.4320522741237986	0.6053681119436272	0.1020589774614811	0.4296634869062054	0.6007864549240933	0.09187834855001617	0.4233761826814773	0.59359428051646	0.09860639373054274	0.4833301480743765	0.05459714738028747	0.031465214932808745	0.4656536496814148	0.2633187195816811	0.08448427169999531	0.43437275458147245	0.4952403869109318	0.14277655343680765	0.41778830492643565	0.5818251317801826	0.1361377288367535	0.4230227406587466	0.6076218577440414	0.08817602089569807	0.4128230048792475	0.5947369551792191
3	0.05	0.23461995231832916	0.5728219736223239	0.4898669869712199	0.13769970506885246	0.68753280422964	0.9083468613320684	0.029839203891482265	0.7957945738648953	1.26686272634526	0.00480892062001247	0.6038033306827089	1.3097513324379606	0.0670586459193039	0.6244328788517446	1.3267868644261631	-0.004435610807026534	0.8734680390091749	1.30710158466434	0.049265922105579084	0.5450532614626914	0.4625643809261492	-0.072859129963862	0.6725390322616538	0.8456938126027624	-0.15470507725425298	0.7750819266175552	1.2102336778860114	-0.14134401638395835	0.5965697348613869	1.2627261641261918	-0.19895363652101394	0.636431351593639	1.2547446869511576	-0.14737450170318792	0.8303326803612855	1.2646386051932927	0.2542498810844329	0.4294083844804559	0.019103820764063396	0.30318395334647835	0.36560682878834544	-0.1728732310315289	0.2844641286562651	0.34461818351990875	-0.06383689931006187	0.3864025875557342	0.4971614429421308	0.12050283729147869	0.3409972380516654	0.5155533013645539	0.3647363213758233	0.17524338249624843	0.4400677147789471	0.5087109043557801	0.10759935676645879	0.43014512362958607	0.5973684081118544	0.09851937094020792	0.42845412464897314	0.5997008995620965	0.09122473007401477	0.4233671141679805	0.597181630865113	0.09859644214656837	0.48325383848939524	0.054634925621724006	0.030132630705829333	0.46794385667158905	0.2714045426577362	0.0844335868718981	0.4346193288460432	0.4953279158337381	0.1413116139344097	0.4184200163941852	0.5850161326752397	0.13790750954240302	0.43600567396623197	0.6101227613863393	0.0881255596393329	0.4128030030386738	0.5946214170904033
4	0.06666666666666667	0.23467805578168766	0.5727420473985317	0.48983532238482597	0.13775561205609488	0.6876216100694107	0.9082316323829399	0.029893892222057454	0.7957021095967329	1.2667991784798753	0.0049123138818317974	0.6038050171735533	1.309645339448718	0.06718200965151463	0.6244773225614915	1.3266880129946024	-0.004289269428699	0.8705449145358494	1.3020686445314176	0.0535879167924295	0.545076113078599	0.4632182637474526	-0.07286355741514243	0.6724995894753509	0.8458112863059448	-0.15471027490015377	0.775267556073874	1.21034345866628	-0.1412919881525083	0.5965907318721849	1.2626895097958888	-0.1978837168811371	0.6519655622192098	1.260385314950747	-0.1475469218116291	0.8311172941090048	1.2653311153883724	0.254270272130855	0.4294589597356649	0.019048886873340266	0.30320009514053164	0.3658385517940761	-0.17280262924973308	0.28442707001951145	0.3446604927767127	-0.06394998817617167	0.3822076761901678	0.4956829976466921	0.11970550212592702	0.33763942280520626	0.502813836033673	0.36341628488789596	0.1764764619760267	0.45323876063302326	0.5134542704362461	0.10339010277109302	0.4178702907473869	0.5986794933414684	0.09847016621488305	0.42835276998028377	0.5997149540598127	0.09101705509028857	0.4232690566239995	0.5970927549798692	0.09451454580111995	0.48149995060332046	0.0540126695011644	0.030113002027476545	0.46817334853082937	0.27162126133545056	0.08446328001320971	0.43490949143003516	0.4954995725620949	0.1411470526479496	0.41859407966253726	0.5850262479401379	0.1376816589255359	0.43616343766031185	0.6102191721439963	0.08820470274089898	0.4128355867725572	0.5947290082617812
5	0.08333333333333333	0.23479558778390283	0.5725752537572929	0.48974905195031904	0.13391376829469587	0.6859646093064223	0.9073380236278673	0.02990396465427441	0.7959069762342417	1.2669091532166892	0.00711749026879916	0.6175379764372004	1.3150120008843404	0.06742747992553756	0.625568135888881	1.3268998633752749	-0.0042880151514113765	0.8705276453443648	1.3020336166413342	0.049403630198311926	0.5449560222199324	0.4625331229268685	-0.07240100973222614	0.6695381104701664	0.8402055314428656	-0.15467801090170288	0.7750486330337764	1.210179389793714	-0.14128164268028875	0.5967756968472138	1.262684540608535	-0.19876825296061193	0.6361970639772025	1.2545649024720762	-0.14758941346043078	0.8307664785117067	1.2652369465062483	0.2542781919689349	0.42934469127036634	0.018946972137358	0.30392506838418765	0.36603559946301706	-0.17623445047146666	0.2843668054328531	0.3446816586492405	-0.06404928675765317	0.3785958090104674	0.48295850970903986	0.119325750787922	0.3371977063573706	0.5043372187463565	0.36695954445548057	0.17748973596501727	0.4530885571250502	0.5105116808930449	0.10800671635500264	0.41806952852076157	0.5986377281943595	0.10201576175197745	0.4296289625367066	0.6004114920271117	0.0919059290309277	0.4241584087593793	0.5940285732284891	0.09448033354141937	0.4816059497529736	0.054040659080131746	0.03005880492808847	0.4681913901005235	0.2717160264778897	0.08324441588856732	0.4349709420132641	0.4985778396895668	0.14131389372984507	0.41857664393184024	0.5850595584199069	0.13771984499072043	0.43613389472399955	0.6101781717908314	0.08820247567135314	0.41265215977445285	0.5947670534139
6	0.1	0.23474148754232513	0.5725472969223334	0.48989374342095243	0.1376865349617908	0.687630981800151	0.9084538485765834	0.03213178064624595	0.811914748116891	1.2727746179479085	0.007132494883450062	0.6175032026647392	1.3149274727337756	0.06744977716192523	0.6253353718910203	1.3267819596236725	-0.0018684704193471199	0.88650321321652	1.3080511605421794	0.05452135772800065	0.5311024903875602	0.4622759080973529	-0.07412785034609774	0.669830177034449	0.8444256137656008	-0.15467259138508244	0.7751201036771438	1.210276079732368	-0.14126737625835606	0.5969269814896663	1.262615001295639	-0.19776567107509743	0.6518093077281453	1.2602083261235866	-0.1475149594912275	0.8309983918313785	1.2653497807074552	0.25443758759866986	0.42909815397749035	0.018548648690737052	0.3043661377595412	0.365645701590856	-0.1794197115849214	0.28499033423463827	0.3448326652613942	-0.06691556614964723	0.37846177225867306	0.4829058859576794	0.11929298437541289	0.33714664670218336	0.504330188014977	0.3669310699233979	0.17747429995728478	0.45311203564371805	0.5104496378461614	0.106746857951493	0.4177714074919148	0.6020301818868832	0.10202150337971388	0.42945788669322	0.6004510076111028	0.09179518086609904	0.4242886221321087	0.5935540639393099	0.09450114116895922	0.4816318888234189	0.05404423128991838	0.02905211685909878	0.46845769510102603	0.27471837101952973	0.083174289342557	0.43492185777360926	0.4986337032018696	0.14141622882591845	0.4183424099156239	0.5851135798078861	0.1377538832097569	0.43594564604898517	0.6101575135025114	0.08820217920954965	0.41254538002856217	0.5947603904195166
